<?xml version="1.0" standalone="no"?>
<!DOCTYPE svg PUBLIC "-//W3C//DTD SVG 20010904//EN"
 "http://www.w3.org/TR/2001/REC-SVG-20010904/DTD/svg10.dtd">
<svg version="1.0" xmlns="http://www.w3.org/2000/svg"
 width="376.000000pt" height="924.000000pt" viewBox="0 0 376.000000 924.000000"
 preserveAspectRatio="xMidYMid meet">
<metadata>
Created by potrace 1.16, written by Peter Selinger 2001-2019
</metadata>
<g transform="translate(0.000000,924.000000) scale(0.100000,-0.100000)"
fill="#000000" stroke="none">
<path d="M780 8284 c-25 -7 -70 -13 -100 -13 -36 -1 -69 -9 -97 -24 -23 -12
-67 -35 -97 -51 -30 -16 -53 -33 -50 -37 2 -4 -5 -11 -16 -14 -12 -4 -25 -18
-30 -31 -5 -13 -14 -24 -20 -24 -6 0 -10 -8 -9 -17 4 -33 -13 -94 -43 -151
-29 -56 -30 -60 -30 -207 0 -137 2 -153 22 -188 12 -20 26 -37 30 -37 5 0 6
-16 3 -37 -5 -26 -3 -34 6 -29 7 5 15 -4 22 -23 6 -17 15 -31 20 -31 6 0 6 7
1 18 -11 21 -10 36 12 129 10 40 15 77 11 83 -4 6 -2 17 4 24 7 8 11 18 10 22
-5 28 3 65 17 79 9 9 14 18 11 21 -3 4 7 24 23 45 24 34 36 69 55 165 7 32 70
49 147 39 35 -4 77 -8 93 -9 42 -3 145 -44 164 -64 9 -9 52 -35 96 -56 83 -42
138 -83 129 -97 -3 -5 3 -9 13 -10 12 0 9 -4 -9 -11 -29 -10 -35 -22 -18 -33
5 -3 7 -12 3 -20 -6 -17 12 -21 22 -5 9 14 27 12 23 -2 -5 -15 9 -31 35 -41
11 -4 16 -3 12 3 -9 15 7 12 29 -5 20 -15 20 -15 0 -16 -33 -2 -59 2 -69 12
-5 5 -18 9 -28 9 -36 0 0 -27 45 -34 23 -4 46 -12 50 -19 6 -9 8 -9 8 1 0 6 7
12 15 12 8 0 15 -4 15 -10 0 -5 7 -10 15 -10 8 0 15 -5 15 -10 0 -6 -7 -13
-15 -16 -19 -8 -20 -24 -1 -24 17 0 28 -24 20 -45 -4 -9 0 -15 10 -15 11 0 16
-9 16 -26 0 -14 -4 -23 -10 -19 -14 9 -13 -8 2 -23 7 -7 8 -12 2 -12 -12 0
-34 43 -34 65 0 46 -35 76 -105 89 -28 5 -133 -12 -216 -36 -20 -6 -42 -7 -49
-3 -16 10 -9 -45 8 -64 9 -9 11 -26 7 -48 -3 -20 -2 -33 5 -33 5 0 10 5 10 11
0 5 5 7 11 3 8 -4 7 -9 -2 -15 -12 -8 -11 -11 1 -19 22 -15 30 -12 23 8 -6 14
-4 15 9 5 8 -7 18 -10 22 -6 4 4 11 1 15 -6 6 -9 12 -4 22 18 14 32 39 42 39
17 0 -8 6 -17 13 -19 9 -4 8 -8 -3 -16 -8 -5 -11 -13 -7 -17 3 -4 13 -1 22 6
12 10 16 10 20 -2 7 -17 31 -17 63 0 27 15 29 32 3 32 -10 0 -21 7 -25 15 -8
21 16 19 40 -3 20 -19 94 -27 94 -11 0 5 6 9 14 9 10 0 14 -15 15 -52 3 -91 2
-111 -2 -168 -3 -43 -8 -55 -21 -54 -11 1 -16 -6 -16 -22 0 -13 -4 -24 -10
-24 -5 0 -10 5 -10 11 0 5 -5 7 -10 4 -6 -4 -9 -14 -8 -23 2 -10 -5 -18 -17
-20 -16 -3 -18 -1 -7 9 21 22 13 30 -13 13 -14 -9 -22 -20 -19 -25 3 -5 -1 -9
-10 -9 -8 0 -17 6 -19 13 -3 6 -6 -7 -6 -30 -1 -53 -21 -57 -22 -5 0 34 -1 35
-10 12 l-10 -24 -25 32 c-14 17 -32 32 -40 32 -8 0 -14 5 -14 10 0 6 -9 10
-19 10 -11 0 -23 9 -26 20 -3 11 -12 20 -18 20 -7 0 -2 8 10 18 20 15 21 20
10 42 -15 29 -77 47 -90 25 -4 -8 -13 -12 -21 -9 -7 3 -19 -2 -26 -11 -12 -14
-15 -14 -36 6 -41 38 -83 7 -49 -36 12 -14 18 -16 21 -7 3 6 19 12 36 12 30 0
31 0 13 -20 -10 -11 -26 -20 -37 -20 -23 0 -24 -20 0 -21 48 -4 69 -3 85 4 13
6 17 3 17 -12 0 -11 10 -27 21 -35 22 -15 22 -15 -7 -23 -46 -13 -187 -10
-191 4 -3 8 -12 9 -28 3 -12 -5 -25 -7 -27 -4 -3 2 -15 -7 -28 -21 -20 -21
-22 -30 -14 -52 7 -22 6 -31 -9 -46 -10 -10 -16 -25 -13 -34 5 -11 2 -13 -11
-8 -10 4 -33 7 -50 6 -27 -1 -37 4 -53 31 -12 18 -23 45 -27 60 -3 15 -11 29
-19 32 -8 3 -14 13 -14 21 0 9 -5 13 -10 10 -6 -3 -10 -2 -10 4 0 5 4 13 10
16 5 3 10 11 10 16 0 6 -3 8 -8 5 -4 -2 -16 16 -26 40 -13 31 -23 44 -35 41
-9 -2 -14 -10 -13 -18 2 -8 6 -39 9 -69 3 -30 14 -66 23 -80 9 -14 20 -38 24
-55 18 -74 51 -118 208 -279 68 -69 83 -91 79 -113 -1 -7 3 -13 8 -13 5 0 13
-9 16 -21 5 -15 10 -18 18 -10 18 18 28 12 21 -13 -6 -24 2 -29 65 -45 31 -8
40 -31 12 -31 -12 0 -21 -3 -21 -7 -1 -5 -9 -18 -19 -30 -17 -20 -22 -21 -50
-10 -21 8 -30 16 -26 26 3 8 2 17 -3 20 -4 3 -23 29 -42 58 -18 29 -37 50 -41
47 -10 -6 -12 4 -13 50 -1 33 -23 47 -32 19 -13 -40 -39 -82 -53 -87 -50 -18
-84 -36 -149 -80 -41 -26 -79 -49 -86 -50 -7 -1 -25 -9 -39 -19 -15 -9 -35
-17 -47 -17 -11 0 -37 -9 -57 -20 -21 -11 -43 -20 -50 -20 -7 0 -21 -8 -31
-17 -25 -24 -49 -39 -95 -60 l-37 -18 0 -1716 0 -1717 30 -10 c16 -6 51 -33
77 -61 l48 -50 40 14 c21 8 42 10 45 5 3 -4 23 -22 45 -40 22 -17 48 -45 57
-62 16 -29 16 -33 -3 -69 -11 -22 -24 -39 -29 -39 -19 0 -48 -85 -41 -125 5
-34 11 -40 40 -47 19 -5 59 -5 94 0 86 13 97 6 99 -71 0 -34 1 -69 0 -77 -7
-84 -2 -171 13 -210 9 -25 22 -70 29 -100 17 -72 35 -108 56 -115 25 -8 38
-48 45 -140 3 -44 15 -106 25 -137 11 -31 22 -89 25 -129 3 -39 7 -74 9 -78 2
-3 7 -46 10 -95 4 -49 9 -108 11 -130 3 -23 10 -108 16 -191 6 -82 12 -161 14
-175 2 -14 6 -60 10 -104 3 -43 11 -89 16 -103 5 -13 9 -42 9 -65 0 -22 6 -54
14 -71 28 -65 36 -94 46 -177 5 -46 10 -88 10 -92 0 -5 226 -8 501 -8 l501 0
-14 21 c-7 12 -31 27 -52 34 -21 7 -49 24 -63 37 -24 22 -24 26 -22 148 1 69
5 132 10 140 10 20 12 156 5 380 -2 96 -2 197 1 224 6 46 7 47 19 25 7 -13 10
-34 7 -46 -3 -15 -1 -23 8 -23 7 0 9 -3 6 -7 -4 -3 0 -15 10 -25 9 -11 11 -18
5 -18 -7 0 -12 -4 -12 -9 0 -14 32 -19 50 -8 14 8 87 -18 235 -83 22 -10 49
-21 59 -24 18 -6 19 -5 4 11 -21 24 -29 83 -12 90 7 2 21 38 30 79 10 41 21
74 26 74 4 0 8 9 8 20 0 26 -14 25 -33 -2 -14 -21 -16 -21 -16 -4 -1 12 -6 16
-17 12 -9 -3 -18 -6 -20 -6 -3 0 -3 -4 1 -10 8 -12 -33 -52 -48 -47 -7 2 -11
18 -9 36 5 47 79 137 162 196 47 34 72 59 76 76 4 19 12 26 29 26 13 0 39 12
57 27 19 14 40 26 46 26 7 0 12 5 12 11 0 8 17 10 50 7 40 -4 48 -2 39 8 -7 8
-7 19 -1 31 5 10 10 50 11 89 2 93 -17 137 -75 173 -44 29 -62 49 -139 157
-27 38 -58 67 -100 91 -70 41 -75 47 -75 91 0 18 -7 64 -16 103 -20 88 -11
104 54 96 52 -6 99 11 136 48 14 14 32 25 40 25 19 0 164 109 231 174 28 26
64 54 80 63 17 8 53 32 80 53 105 79 152 60 221 -88 25 -53 52 -110 60 -127
15 -33 64 -195 71 -237 3 -15 13 -28 24 -31 10 -3 18 -2 17 2 -2 20 3 31 13
26 6 -4 13 2 16 14 6 23 18 27 29 10 3 -6 17 -8 29 -5 13 3 27 2 30 -4 3 -6
17 -7 31 -4 18 5 24 2 24 -10 0 -16 12 -21 23 -9 4 3 2 12 -4 19 -9 11 -5 16
17 25 16 7 40 13 52 15 13 1 34 10 48 18 30 20 34 20 34 -3 0 -11 4 -22 9 -25
13 -9 20 31 8 43 -8 8 1 22 31 51 22 22 45 40 49 40 4 0 17 13 27 29 11 16 32
36 48 46 15 9 28 21 28 27 0 15 83 138 93 138 4 0 7 290 7 643 l0 644 -157 7
c-86 4 -164 11 -174 17 -20 10 -49 95 -49 141 0 32 52 104 82 114 10 3 25 22
33 42 9 19 38 59 65 88 33 34 50 62 50 78 0 14 4 27 9 30 5 4 12 25 16 47 8
45 1 43 88 21 32 -9 37 -8 37 7 0 12 -18 23 -62 37 -63 21 -63 21 -103 96 -22
41 -50 88 -61 104 -13 17 -24 53 -29 89 -4 33 -14 68 -22 78 -9 9 -13 17 -9
17 5 0 -2 17 -14 37 -13 23 -19 45 -15 60 4 16 -4 37 -28 72 -21 30 -39 72
-47 112 -7 35 -17 68 -21 74 -5 5 -9 17 -9 26 0 10 -13 37 -29 61 -28 42 -81
182 -81 214 0 9 -14 36 -30 61 -44 64 -56 91 -73 159 -14 55 -91 215 -122 254
-14 17 -95 183 -95 194 0 3 -17 37 -39 75 -21 38 -44 85 -50 104 -7 19 -20 45
-31 57 -20 22 -129 79 -165 85 -11 2 -53 13 -94 24 -41 12 -102 24 -135 27
-34 3 -64 8 -68 10 -3 2 -68 11 -144 19 -75 9 -171 22 -213 30 -42 8 -103 20
-136 26 -108 20 -145 41 -263 154 -29 27 -71 57 -95 66 -37 15 -42 21 -44 52
-2 19 2 48 9 64 7 16 13 73 13 134 0 72 4 111 13 122 9 10 11 28 7 50 -5 26
-3 36 9 40 10 4 16 1 16 -9 0 -8 5 -12 10 -9 13 8 13 66 0 99 -7 19 -4 34 10
63 30 59 52 176 44 229 -3 25 -19 71 -33 102 -15 31 -33 77 -40 102 -25 87
-71 167 -119 210 -26 23 -66 58 -88 79 -55 50 -195 99 -317 112 -101 10 -123
9 -187 -7z m144 -1310 c27 -4 59 -12 72 -18 l22 -12 -21 -13 c-25 -16 -175
-31 -180 -17 -4 13 -47 -12 -47 -29 0 -7 9 -17 20 -20 30 -9 118 -17 174 -15
38 1 53 -3 68 -20 26 -28 9 -50 -38 -50 -19 0 -34 -4 -34 -10 0 -5 -15 -10
-32 -9 -43 1 -92 -6 -106 -15 -7 -4 -12 -4 -12 1 0 4 -15 9 -33 10 -33 2 -72
37 -61 54 3 6 1 15 -4 22 -19 25 -20 57 -1 81 10 13 19 29 19 36 0 7 8 9 19 5
11 -3 28 3 42 15 17 14 33 19 54 16 17 -3 52 -8 79 -12z m418 -694 c19 0 20
-1 4 -25 -9 -14 -14 -30 -10 -36 3 -6 -10 -25 -31 -41 -33 -28 -36 -34 -30
-64 6 -36 -8 -74 -28 -74 -7 0 -23 -9 -35 -20 -12 -11 -26 -20 -32 -20 -6 0
-21 -9 -33 -20 -33 -32 -60 -34 -108 -9 -46 24 -79 27 -141 14 -37 -7 -38 -6
-38 22 0 16 4 33 9 39 12 13 21 83 11 89 -13 8 -36 58 -34 75 3 36 17 61 31
56 8 -3 23 -6 34 -6 10 0 19 -7 19 -15 0 -17 16 -20 25 -4 5 7 14 5 30 -5 19
-13 26 -13 50 0 15 8 35 14 44 14 9 0 22 5 29 12 9 9 12 9 12 0 0 -10 5 -10
22 -1 25 13 85 23 136 21 18 0 32 5 33 11 0 9 2 8 6 0 2 -7 14 -13 25 -13z
m-567 -350 c7 0 16 8 18 18 3 10 5 7 6 -10 2 -48 58 -74 196 -92 11 -1 37 -10
57 -20 20 -10 44 -19 54 -20 25 -4 44 -35 44 -73 0 -19 5 -33 13 -34 6 0 2 -4
-11 -10 -24 -9 -22 -29 4 -29 23 0 19 -67 -5 -75 -11 -3 -22 -12 -25 -21 -4
-12 -2 -12 14 -4 14 7 20 7 20 0 0 -5 3 -9 8 -9 22 4 24 -3 4 -17 -19 -13 -25
-14 -39 -2 -15 11 -16 11 -10 -4 8 -23 -1 -48 -19 -48 -8 0 -14 -6 -14 -14 0
-7 -7 -19 -15 -26 -9 -7 -14 -19 -11 -27 3 -7 1 -13 -4 -13 -6 0 -11 10 -11
23 -1 15 -3 17 -6 5 -9 -33 -79 -29 -105 7 -4 6 -13 2 -21 -9 -14 -19 -14 -19
-34 1 -30 30 -48 33 -66 12 -21 -24 -53 -25 -66 -1 -9 15 -10 15 -11 -5 0 -13
-4 -23 -9 -23 -5 0 -9 36 -9 79 l0 79 29 4 c17 3 32 2 34 -2 3 -4 26 -10 52
-13 26 -3 52 -11 58 -18 15 -20 55 -41 55 -29 0 5 7 7 15 4 11 -5 13 -10 5
-19 -14 -17 -1 -26 20 -15 13 7 20 6 24 -6 4 -11 13 -13 28 -8 42 13 67 67 27
57 -18 -5 -20 -3 -15 15 4 11 2 23 -4 27 -5 3 -10 1 -10 -4 0 -6 -9 -11 -20
-11 -24 0 -26 18 -4 48 19 28 14 34 -26 37 -21 2 -29 -1 -28 -10 4 -18 0 -19
-52 -12 -101 16 -192 42 -198 57 -3 8 -10 18 -16 22 -7 5 -7 8 2 8 6 0 12 6
12 14 0 8 7 17 16 20 11 4 14 13 11 27 -3 12 0 31 6 43 7 11 13 23 14 25 1 2
9 -4 18 -13 9 -9 23 -16 31 -16 21 0 1 29 -42 60 -31 23 -46 60 -24 60 6 0 11
10 11 23 1 16 2 18 6 5 2 -10 11 -18 18 -18z m530 -146 c32 -24 65 -42 72 -40
7 3 10 -1 7 -9 -3 -8 3 -16 16 -20 16 -5 19 -10 11 -18 -18 -18 -13 -22 34
-22 33 0 48 -6 59 -20 8 -12 10 -22 5 -26 -16 -9 12 -26 54 -32 31 -5 38 -3
33 8 -3 9 1 15 9 15 8 0 15 -9 15 -19 0 -11 8 -22 19 -26 21 -6 23 -42 2 -55
-12 -7 -12 -12 3 -34 20 -31 26 -33 19 -7 -3 10 0 22 7 26 19 12 23 -3 10 -35
-12 -30 -12 -30 -41 -13 -16 10 -29 23 -29 30 0 7 -9 13 -20 13 -12 0 -30 9
-42 20 -12 11 -29 20 -38 20 -9 0 -31 15 -48 34 -17 19 -45 37 -61 41 -17 4
-31 11 -31 15 0 5 -6 7 -13 4 -8 -3 -18 6 -25 20 -6 13 -35 40 -65 60 -39 26
-56 45 -64 70 -11 36 -7 44 27 45 8 0 42 -20 75 -45z m-97 -417 c13 -36 6
-101 -10 -91 -12 8 -43 -25 -50 -54 -5 -18 -1 -23 20 -29 38 -9 43 -21 21 -61
-11 -19 -18 -36 -15 -39 6 -6 -23 -106 -35 -118 -6 -5 -36 -11 -67 -12 -73 -2
-135 -13 -143 -25 -3 -4 -22 -9 -42 -10 -20 -1 -34 -5 -32 -9 6 -9 -24 -21
-36 -13 -12 7 -11 54 1 54 6 0 10 8 10 18 1 23 21 48 45 55 11 4 35 20 53 37
18 16 38 30 44 30 5 0 23 10 38 23 15 12 36 28 46 35 11 7 13 10 6 6 -7 -3
-21 1 -30 8 -19 17 -70 17 -80 1 -9 -13 -54 -11 -64 2 -5 6 -14 1 -23 -12 -9
-13 -21 -23 -27 -23 -7 0 -6 6 2 15 10 13 9 15 -9 15 -11 0 -21 5 -21 10 0 10
14 14 38 11 6 -1 12 5 12 13 0 19 70 40 84 26 14 -14 36 -12 33 2 -1 8 18 15
53 20 79 12 83 12 102 4 11 -5 18 -1 23 13 11 36 -2 41 -91 37 -62 -3 -84 -1
-81 7 2 7 16 11 31 9 15 -2 34 2 42 9 8 6 27 9 43 6 23 -5 31 -1 41 19 7 13
19 24 27 24 7 0 13 5 13 10 0 22 17 8 28 -23z m210 -167 c34 -7 62 -16 62 -20
0 -4 18 -10 40 -14 30 -5 44 -13 52 -31 8 -18 19 -25 40 -25 16 0 31 -6 34
-15 4 -8 10 -13 14 -10 5 3 12 0 15 -6 5 -7 -4 -10 -27 -8 -18 2 -38 0 -44 -4
-6 -3 -26 -2 -45 4 -32 9 -64 16 -114 22 -11 1 -24 5 -30 9 -5 3 -31 9 -57 13
-35 5 -48 12 -53 28 -6 19 -8 20 -12 5 -7 -29 -22 -21 -18 10 2 15 4 34 4 43
1 20 40 19 139 -1z m72 -395 c0 -26 14 -33 26 -14 4 7 19 8 38 4 55 -11 96
-13 101 -4 3 4 12 6 21 2 13 -5 12 -9 -5 -25 -12 -10 -21 -23 -21 -29 0 -6 -5
-7 -10 -4 -6 4 -17 1 -25 -5 -8 -7 -22 -10 -30 -6 -8 3 -58 6 -110 7 -86 1
-95 3 -95 20 0 14 7 19 29 19 34 0 63 24 55 45 -4 9 0 15 10 15 10 0 16 -9 16
-25z m-524 -126 c4 3 4 0 0 -7 -11 -19 35 -33 53 -15 9 9 22 12 35 8 12 -4 35
-8 52 -9 18 0 42 -10 54 -21 16 -14 36 -20 71 -20 48 0 50 -1 44 -25 -3 -14
-12 -29 -19 -35 -7 -5 -16 -27 -20 -49 -5 -26 -14 -40 -27 -43 -10 -3 -19 -9
-19 -13 0 -4 -21 -6 -47 -4 -27 2 -90 6 -140 8 -51 3 -96 7 -101 10 -4 2 -8
17 -7 31 0 20 8 30 32 40 17 8 33 10 35 6 2 -4 20 -6 40 -3 l37 4 -29 25 c-17
14 -28 28 -25 33 2 4 -9 10 -25 14 -21 4 -30 11 -30 26 0 14 -6 19 -21 17 -14
-1 -24 6 -30 20 -8 21 -7 22 36 8 24 -7 47 -10 51 -6z m659 -69 c6 -5 34 -12
63 -16 29 -4 54 -10 57 -14 2 -4 -15 -15 -38 -25 -23 -9 -51 -22 -62 -27 -12
-7 -20 -7 -22 -1 -2 6 -19 7 -46 2 -23 -4 -62 -8 -87 -9 -33 0 -41 -3 -30 -10
12 -8 11 -10 -8 -10 -12 0 -31 5 -41 12 -16 10 -23 8 -38 -9 -18 -20 -75 -38
-86 -26 -3 3 0 12 8 20 8 8 15 23 15 33 0 10 5 22 10 25 6 4 8 15 5 25 -5 15
3 20 47 29 101 21 229 21 253 1z m-420 -303 c13 -10 16 -21 11 -40 -3 -15 -12
-27 -19 -27 -7 0 -24 -10 -37 -22 -64 -60 -83 -67 -180 -64 -84 2 -114 -6 -72
-21 59 -21 122 -55 131 -70 7 -14 35 -23 113 -36 56 -10 121 -24 143 -32 22
-7 58 -16 80 -20 22 -4 48 -11 58 -17 18 -9 17 -11 -8 -24 -44 -23 -85 -23
-180 -3 -83 17 -141 36 -189 61 -32 17 -164 21 -215 7 -57 -15 -71 -26 -65
-47 4 -12 0 -10 -14 5 -17 19 -30 23 -75 22 -30 -1 -59 1 -65 5 -6 3 -13 -2
-15 -11 -3 -10 -5 -2 -6 18 -1 36 16 65 72 124 15 17 27 33 27 37 0 5 6 8 14
8 7 0 19 6 26 14 6 8 46 39 88 68 l77 53 90 -2 c62 -2 98 2 115 11 33 18 72
19 95 3z m354 -121 c61 -33 102 -43 248 -66 106 -16 131 -23 183 -55 75 -45
110 -88 131 -160 17 -55 17 -55 -5 -56 -19 -2 -19 -2 2 -6 18 -3 23 -10 19
-24 -3 -12 0 -19 9 -19 17 0 19 -27 3 -32 -8 -3 -5 -10 6 -21 23 -23 10 -35
-18 -18 -20 13 -21 13 -8 -2 11 -14 11 -18 -3 -23 -8 -3 -23 1 -31 10 -21 21
-27 20 -48 -4 -9 -11 -25 -20 -34 -20 -10 0 -28 -3 -40 -6 -20 -5 -23 -2 -23
20 0 26 -13 35 -25 16 -3 -5 -15 -10 -26 -10 -11 0 -17 -4 -14 -10 3 -6 -4
-10 -16 -10 -12 0 -27 -7 -34 -16 -15 -22 -77 -12 -106 17 -23 23 -48 27 -28
3 11 -13 9 -14 -16 -8 -16 4 -40 13 -54 20 -14 8 -32 14 -38 14 -7 0 -13 8
-13 18 0 14 13 21 53 31 48 12 80 23 117 41 8 4 16 19 18 34 3 20 -2 28 -23
36 -15 6 -39 10 -53 9 -48 -2 -163 19 -172 31 -3 4 -14 12 -25 18 -18 10 -17
11 12 12 17 0 34 -4 37 -9 6 -9 37 -15 151 -29 33 -4 65 -11 72 -15 6 -4 14
-3 18 3 3 5 15 10 26 10 10 0 19 4 19 9 0 5 9 13 20 16 16 5 18 10 10 26 -6
10 -15 19 -20 19 -5 0 -21 5 -37 12 -15 6 -30 12 -33 13 -3 1 -13 5 -23 10
-10 4 -32 5 -49 1 -26 -5 -29 -4 -18 8 6 8 18 12 26 9 22 -8 17 15 -6 27 -17
9 -24 6 -44 -15 -26 -28 -49 -34 -40 -10 4 8 2 15 -4 15 -6 0 -12 -5 -14 -12
-3 -8 -12 -4 -26 10 -12 12 -24 22 -27 22 -3 0 -9 0 -15 0 -19 0 -80 71 -80
93 0 52 39 59 109 23z m-899 -236 c0 -15 9 -22 30 -26 27 -6 43 -24 21 -24 -5
0 -11 -7 -14 -14 -4 -11 -1 -13 10 -9 11 4 14 2 9 -5 -4 -7 -19 -9 -36 -5 -20
3 -30 1 -30 -6 0 -7 -4 -10 -9 -7 -5 3 -11 0 -14 -8 -4 -9 -15 -13 -29 -10
-20 4 -20 3 -4 -4 20 -9 32 -42 15 -42 -5 0 -9 5 -9 10 0 6 -7 10 -15 10 -23
0 -18 -16 10 -34 29 -19 36 -20 34 -3 -4 34 2 68 11 62 6 -4 8 -15 5 -24 -3
-12 7 -28 31 -50 19 -18 33 -35 30 -39 -3 -3 -17 5 -31 18 -21 19 -25 21 -25
7 0 -9 5 -17 10 -17 6 0 10 -10 10 -22 -1 -21 -2 -21 -13 -7 -11 14 -16 15
-30 4 -10 -7 -27 -11 -37 -8 -28 8 -25 -11 5 -27 27 -14 31 -25 15 -35 -5 -3
-10 1 -10 10 0 22 -24 14 -28 -10 -5 -22 -61 -85 -76 -85 -6 0 -2 7 8 15 17
13 18 18 6 40 -7 14 -18 24 -24 23 -6 -2 -12 2 -13 7 -1 6 -12 13 -25 16 -15
3 -22 12 -20 22 2 10 -4 17 -14 17 -16 0 -16 2 1 20 17 18 17 21 1 45 -9 14
-21 23 -26 20 -6 -4 -10 -2 -10 3 0 6 7 12 15 16 18 7 20 62 3 69 -8 3 -2 9
14 15 14 6 29 16 33 22 3 5 11 8 16 5 5 -4 9 -1 9 4 0 6 4 11 10 11 5 0 6 -8
3 -17 -7 -17 -6 -17 11 0 21 20 33 22 39 5 3 -10 10 -8 25 6 18 15 26 17 53 7
43 -15 58 -13 35 4 -11 8 -16 21 -13 30 9 22 27 19 27 -5z m1020 -1667 c-23
-9 -30 -25 -19 -46 10 -18 12 -18 30 -1 17 15 23 13 21 -7 -1 -4 12 -9 28 -13
17 -3 30 -12 30 -19 0 -10 8 -13 25 -9 15 2 25 0 25 -7 0 -7 -5 -9 -11 -5 -6
3 -14 2 -18 -3 -8 -13 -81 -24 -81 -12 0 5 -4 9 -10 9 -5 0 -10 -7 -10 -16 0
-11 -6 -15 -20 -11 -25 7 -36 -9 -19 -29 10 -13 10 -17 -1 -24 -9 -6 -19 -2
-28 11 -7 11 -17 17 -22 14 -5 -3 -24 1 -41 10 -31 16 -52 10 -55 -15 -1 -6
-2 -15 -3 -21 -2 -17 -51 34 -51 53 0 23 -17 31 -58 30 -19 -1 -44 6 -56 14
-20 15 -19 16 17 10 28 -5 37 -4 37 7 0 18 49 29 90 21 19 -4 30 -2 30 4 0 8
8 8 22 3 13 -4 35 -5 50 0 21 6 26 4 21 -7 -3 -9 2 -14 15 -14 16 0 20 6 20
29 -1 37 8 51 35 50 15 0 17 -2 7 -6z"/>
<path d="M545 7570 c-3 -6 4 -10 17 -10 28 0 72 -28 48 -31 -8 -1 -22 -2 -30
-3 -26 -2 -60 -30 -60 -49 0 -14 5 -17 18 -12 9 4 35 9 57 12 38 4 41 3 59
-35 13 -28 26 -42 45 -45 32 -6 41 -1 41 24 0 11 4 18 10 14 5 -3 7 -12 3 -20
-6 -18 -5 -18 36 -4 17 6 31 15 31 21 0 5 9 17 19 26 31 27 35 57 9 70 -74 37
-288 67 -303 42z"/>
<path d="M2767 1078 c-3 -10 -53 -13 -203 -13 -109 0 -209 -4 -221 -8 -27 -10
-156 -135 -168 -162 -4 -11 -9 -51 -10 -89 -3 -76 16 -131 48 -139 9 -3 17
-14 17 -25 0 -11 6 -25 14 -31 7 -6 16 -29 20 -51 7 -47 52 -135 59 -117 4 9
6 9 6 0 1 -7 8 -13 16 -13 11 0 15 11 15 40 0 34 -3 40 -21 40 -17 0 -20 5
-17 31 2 24 11 36 37 50 39 21 51 36 44 56 -6 15 -43 8 -55 -11 -6 -8 -8 -7
-8 2 0 6 -6 12 -14 12 -19 0 -27 37 -10 51 8 6 14 19 14 29 0 10 7 23 15 30
23 19 18 32 -12 28 -26 -3 -28 0 -25 27 6 53 25 80 54 78 23 -1 27 3 30 30 2
18 -2 45 -10 60 -17 36 -9 47 34 47 24 0 34 -4 34 -16 0 -12 8 -14 44 -9 27 4
52 2 66 -5 16 -9 25 -9 33 -1 19 19 92 13 120 -9 14 -11 30 -20 36 -20 6 0 11
-6 12 -12 0 -7 5 0 11 15 8 23 7 31 -7 41 -13 10 -15 15 -6 20 16 10 60 -1 79
-20 13 -14 12 -16 -7 -21 -26 -7 -28 -33 -2 -33 10 0 22 -8 25 -17 5 -11 10
-13 17 -6 8 8 8 17 0 31 -6 11 -8 27 -5 35 3 8 -8 31 -26 51 -32 36 -65 47
-73 24z"/>
<path d="M3722 711 c-16 -16 -41 -31 -54 -33 -19 -2 -23 -9 -23 -36 0 -27 -11
-44 -65 -98 -36 -36 -77 -73 -92 -82 -33 -19 -35 -31 -8 -65 25 -31 26 -63 3
-72 -10 -3 -20 -5 -22 -3 -2 2 -7 -7 -12 -19 -5 -13 -15 -23 -23 -23 -9 0 -18
-13 -22 -34 -3 -19 -13 -37 -21 -40 -9 -4 -13 -13 -9 -22 6 -16 -70 -133 -87
-134 -4 0 -19 -11 -33 -25 l-25 -25 104 0 c67 0 107 4 115 12 9 9 12 9 12 0 0
-9 40 -12 150 -12 l150 0 0 370 c0 204 -2 370 -4 370 -1 0 -17 -13 -34 -29z"/>
<path d="M3083 430 c4 -14 0 -20 -13 -20 -10 0 -23 -7 -31 -16 -9 -11 -22 -14
-41 -10 -23 5 -28 2 -28 -14 0 -11 -5 -20 -11 -20 -5 0 -8 4 -4 10 3 5 -10 8
-32 7 -27 -1 -38 -7 -38 -18 0 -9 -8 -24 -18 -33 -9 -10 -17 -28 -17 -42 0
-25 15 -33 23 -11 2 6 8 9 13 4 13 -13 -58 -67 -82 -62 -18 4 -23 -2 -33 -39
-10 -41 -66 -121 -97 -139 -20 -11 -17 -29 4 -24 9 3 38 8 63 12 36 4 78 27
190 102 79 52 147 101 152 108 4 7 37 35 75 61 37 26 78 58 92 70 14 13 38 34
55 48 l30 24 -85 -5 c-65 -4 -94 -2 -124 11 -49 20 -49 20 -43 -4z"/>
</g>
</svg>
